HIERARCHY
ROOT ui
{
	 OFFSET 0 0 0
	 CHANNELS 3 XPosition YPosition Z Position
	 EndSite
	 {
	 OFFSET 0 -1 0
	 }
}
ROOT li
{
	 OFFSET 0 0 0
	 CHANNELS 3 XPosition YPosition Z Position
	 EndSite
	 {
	 OFFSET 0 -1 0
	 }
}
ROOT ul
{
	 OFFSET 0 0 0
	 CHANNELS 3 XPosition YPosition Z Position
	 EndSite
	 {
	 OFFSET 0 -1 0
	 }
}
ROOT ll
{
	 OFFSET 0 0 0
	 CHANNELS 3 XPosition YPosition Z Position
	 EndSite
	 {
	 OFFSET 0 -1 0
	 }
}
ROOT tt
{
	 OFFSET 0 0 0
	 CHANNELS 3 XPosition YPosition Z Position
	 EndSite
	 {
	 OFFSET 0 -1 0
	 }
}
ROOT tb
{
	 OFFSET 0 0 0
	 CHANNELS 3 XPosition YPosition Z Position
	 EndSite
	 {
	 OFFSET 0 -1 0
	 }
}
ROOT td
{
	 OFFSET 0 0 0
	 CHANNELS 3 XPosition YPosition Z Position
	 EndSite
	 {
	 OFFSET 0 -1 0
	 }
}
ROOT v
{
	 OFFSET 0 0 0
	 CHANNELS 3 XPosition YPosition Z Position
	 EndSite
	 {
	 OFFSET 0 -1 0
	 }
}
ROOT bn
{
	 OFFSET 0 0 0
	 CHANNELS 3 XPosition YPosition Z Position
	 EndSite
	 {
	 OFFSET 0 -1 0
	 }
}
MOTION
Frames: 32
Frame Time: 0.002
0.004696962833404541	-4.316270053386688E-4	0		0.4921582336425781	-2.451710693359375	0		-1.0065333862304688	0.10599295806884766	0		-0.836442138671875	-2.52753955078125	0		1.2823394775390624	-0.800820556640625	0		2.995945068359375	-0.12390037536621094	0		4.58601318359375	0.030181882858276367	0		5.53033154296875	0.09400347137451172	0		0.023637138366699218	6.03922412109375	0		
-0.02031877899169922	9.268919825553894E-4	0		0.4407803649902344	-2.4439697265625	0		-1.0006256103515625	0.10197874450683594	0		-0.8359723510742187	-2.527495361328125	0		1.283145263671875	-0.801188720703125	0		2.9590361328125	-0.11590421295166016	0		4.55913232421875	0.03768473052978515	0		5.53131103515625	0.09280884552001953	0		0.1419931182861328	6.04996435546875	0		
0.0036064019203186034	-0.003621311902999878	0		0.47510049438476565	-2.457802978515625	0		-0.9996041259765625	0.10203189086914062	0		-0.825570068359375	-2.535656005859375	0		1.284005615234375	-0.8015428466796874	0		3.002732666015625	-0.13235331726074218	0		4.5759912109375	0.028450624465942383	0		5.5323310546875	0.09169719696044921	0		-0.005251972198486328	6.0335849609375	0		
-0.01828286361694336	6.778939962387085E-4	0		0.45287127685546874	-2.450580322265625	0		-0.9894257202148438	0.10889293670654297	0		-0.822909912109375	-2.53369091796875	0		1.2879830322265624	-0.7979374389648437	0		2.978010498046875	-0.1184837646484375	0		4.56602978515625	0.027787616729736328	0		5.53750830078125	0.09759754180908203	0		0.012957599639892578	6.0441533203125	0		
0.012819028854370118	0.002979543924331665	0		0.5006732177734375	-2.445668212890625	0		-0.9883595581054687	0.10890161895751953	0		-0.8201874389648437	-2.531744384765625	0		1.28891845703125	-0.7982572631835938	0		2.988796630859375	-0.1322338104248047	0		4.58219482421875	0.03271073913574219	0		5.53857275390625	0.09666482543945312	0		0.013898919105529785	6.0450361328125	0		
-0.013116722106933593	0.003355048894882202	0		0.4522787780761719	-2.452934814453125	0		-0.9913619995117188	0.10496766662597656	0		-0.78555078125	-2.537421630859375	0		1.2868006591796874	-0.8024990844726563	0		2.989067138671875	-0.120732177734375	0		4.5832578125	0.03199340438842774	0		5.53551171875	0.08890346527099609	0		0.034588245391845705	6.03753857421875	0		
0.010861327171325683	-0.0012195489406585693	0		0.5069632873535156	-2.45915283203125	0		-1.000271240234375	0.10613005065917969	0		-0.8325891723632812	-2.527556884765625	0		1.287771240234375	-0.8027769165039063	0		3.010955322265625	-0.12959628295898437	0		4.5802060546875	0.025432441711425783	0		5.5507109375	0.09489183044433594	0		0.16678045654296875	6.06090771484375	0		
-0.014065940856933594	1.4127400517463683E-4	0		0.4538909912109375	-2.453300537109375	0		-0.9942903442382812	0.10198969268798828	0		-0.8219293212890625	-2.53580810546875	0		1.288745849609375	-0.8030333251953125	0		2.971057373046875	-0.12622479248046875	0		4.5812568359375	0.024871950149536134	0		5.53763671875	0.08751192474365234	0		0.03693305587768555	6.03827587890625	0		
0.01294067096710205	-0.0014961999654769897	0		0.46661642456054686	-2.459702880859375	0		-1.0600850830078126	0.11121898651123047	0		-0.8919440307617188	-2.5275146484375	0		1.2927918701171874	-0.79932763671875	0		2.981038330078125	-0.1287621765136719	0		4.58025146484375	0.022423755645751952	0		5.55178759765625	0.09269992065429687	0		0.022504993438720703	6.042443359375	0		
-0.008973540306091309	0.0028106389045715334	0		0.48865814208984376	-2.450276611328125	0		-0.9831076049804688	0.10867765808105469	0		-0.8141298217773437	-2.530085693359375	0		1.2968040771484375	-0.7966027221679688	0		3.013241455078125	-0.11868486785888673	0		4.5812568359375	0.022004051208496092	0		5.54797265625	0.10131522369384766	0		0.02388264846801758	6.0423056640625	0		
0.014913732528686524	-0.001769644021987915	0		0.47454931640625	-2.448145263671875	0		-0.9862100830078125	0.10466858673095703	0		-0.8661965942382812	-2.525154052734375	0		1.2946766357421875	-0.7997425537109375	0		2.978901123046875	-0.1342852783203125	0		4.584265625	0.023606122970581053	0		5.5447919921875	0.09298841094970703	0		0.04106575393676758	6.037859375	0		
-0.010137196540832519	-3.9871200919151307E-4	0		0.5002811889648437	-2.45378125	0		-0.9952600708007813	0.10576580810546875	0		-0.7924766845703125	-2.531673095703125	0		1.29249462890625	-0.803865234375	0		2.974957763671875	-0.12743379974365235	0		4.58519140625	0.023302059173583984	0		5.5415849609375	0.08572769165039062	0		0.027004125595092774	6.027017578125	0		
-0.009266057014465333	-5.297290086746216E-4	0		0.4580746765136719	-2.454089111328125	0		-0.9844074096679688	0.10446700286865235	0		-0.8645628662109375	-2.52536328125	0		1.293343994140625	-0.804031494140625	0		2.980688232421875	-0.13474150085449219	0		4.57506494140625	0.0232608699798584	0		5.54245849609375	0.08544657897949219	0		0.04324945068359375	6.037591796875	0		
-0.00845706844329834	-6.578500270843506E-4	0		0.48783331298828125	-2.454790771484375	0		-0.9835964965820313	0.10435670471191406	0		-0.814965087890625	-2.5344287109375	0		1.2972156982421874	-0.8002426147460937	0		3.003743896484375	-0.12235525512695312	0		4.57999072265625	0.028969932556152343	0		5.54740478515625	0.09213777160644532	0		-0.006841040134429931	6.0374560546875	0		
-0.004658967018127441	0.002158716917037964	0		0.46364938354492186	-2.44943408203125	0		-0.9787780151367188	0.1081640625	0		-0.8142521362304688	-2.53454443359375	0		1.297947265625	-0.8003810424804687	0		2.986330322265625	-0.13015965270996094	0		4.59172900390625	0.028581882476806642	0		5.54814599609375	0.09195372009277344	0		0.012843453407287597	6.030962890625	0		
-0.007050148963928223	-9.021139740943908E-4	0		0.5052591552734375	-2.452354736328125	0		-0.9872455444335938	0.10122499084472657	0		-0.8254766845703125	-2.52842822265625	0		1.295533203125	-0.8044470825195312	0		3.0141083984375	-0.12481941986083984	0		4.58827978515625	0.022522048950195314	0		5.54881298828125	0.09181080627441406	0		0.012554873466491699	6.0318623046875	0		
-0.006459959983825684	-0.001016744017601013	0		0.4519613037109375	-2.4464169921875	0		-0.99157666015625	0.10520536804199218	0		-0.824882080078125	-2.528544189453125	0		1.2961248779296874	-0.8045594482421875	0		3.003583984375	-0.13071327209472655	0		4.58886962890625	0.02241537094116211	0		5.554265625	0.08460965728759766	0		0.17770771789550782	6.059544921875	0		
-0.00594775390625	-0.0011253859996795655	0		0.4862303466796875	-2.460182373046875	0		-0.98614404296875	0.10099337005615235	0		-0.8165491333007813	-2.5388125	0		1.2966424560546874	-0.8046592407226563	0		2.979140625	-0.12831471252441407	0		4.5893818359375	0.022337938308715822	0		5.54577880859375	0.08471414947509766	0		-0.001605631947517395	6.02093310546875	0		
-0.0024556050300598145	0.001713876962661743	0		0.43893377685546875	-2.447346435546875	0		-1.0525423583984375	0.11018440246582031	0		-0.812010498046875	-2.53500146484375	0		1.3060447998046876	-0.8069219360351563	0		2.9933984375	-0.13765542602539063	0		4.58777734375	0.020324745178222657	0		5.55034765625	0.09159264373779297	0		0.031167055130004884	6.04120458984375	0		
0.0019790990352630614	0.005541366100311279	0		0.5222111206054687	-2.454048828125	0		-0.9762200317382812	0.10759759521484374	0		-0.8434766845703126	-2.52748486328125	0		1.306646728515625	-0.7950006103515626	0		3.02908203125	-0.1213936538696289	0		4.588134765625	0.020292179107666015	0		5.55899462890625	0.10641441345214844	0		0.03240485000610351	6.039091796875	0		
-0.001815134048461914	0.0015343029499053954	0		0.4625029296875	-2.45495947265625	0		-0.9859174194335938	0.1086917266845703	0		-0.7774020385742187	-2.5408642578125	0		1.3008258056640625	-0.8009490356445312	0		2.989179931640625	-0.13065451049804688	0		4.60556982421875	0.027942659378051758	0		5.5558486328125	0.08447393035888671	0		0.03065665817260742	6.042044921875	0		
-0.00466264009475708	-0.0014845019578933717	0		0.5078007202148438	-2.452905029296875	0		-0.97980712890625	0.10348328399658203	0		-0.8229302978515625	-2.52906201171875	0		1.2979713134765625	-0.8049475708007813	0		2.985295654296875	-0.1356075134277344	0		4.5865498046875	0.01630729866027832	0		5.54705908203125	0.08465660858154297	0		0.032462715148925785	6.02593212890625	0		
-0.004522429943084717	-0.0015548570156097411	0		0.4629279479980469	-2.45509326171875	0		-0.9847257690429687	0.10049594116210937	0		-0.8149478149414062	-2.539298095703125	0		1.29812353515625	-0.8049984130859374	0		2.98543798828125	-0.13563299560546874	0		4.5908056640625	0.022227062225341796	0		5.5471982421875	0.08466957855224609	0		0.0487036018371582	6.0355498046875	0		
-0.004448826789855957	-0.0016184200048446654	0		0.46507391357421873	-2.453189697265625	0		-0.9755194702148438	0.10724288177490235	0		-0.8487357177734375	-2.533714111328125	0		1.3012852783203126	-0.8011029052734375	0		2.996647216796875	-0.12886993408203126	0		4.58884033203125	0.020266244888305664	0		5.55140576171875	0.09160388946533203	0		0.03081349563598633	6.0418349609375	0		
-0.0013797279596328735	0.0012658079862594605	0		0.48732369995117186	-2.442669677734375	0		-0.97550927734375	0.10717430114746093	0		-0.810720703125	-2.535517822265625	0		1.3013062744140624	-0.8011444091796875	0		2.989622802734375	-0.13075520324707032	0		4.595005859375	0.028145950317382814	0		5.551416015625	0.09161287689208984	0		0.047653018951416014	6.03644970703125	0		
-0.0014249939918518067	0.0012152299880981445	0		0.48999029541015626	-2.45877099609375	0		-0.97963232421875	0.10319303131103516	0		-0.848716064453125	-2.533839599609375	0		1.3012684326171875	-0.8011829833984375	0		3.02155322265625	-0.13239825439453126	0		4.5949599609375	0.028137680053710937	0		5.5513701171875	0.09161341094970703	0		0.015422545433044433	6.03002099609375	0		
-0.004578524112701416	-0.001770369052886963	0		0.5080216674804687	-2.453162109375	0		-0.9897076416015625	0.10433655548095704	0		-0.7888084106445312	-2.53505126953125	0		1.2981002197265625	-0.8051607666015625	0		3.0214580078125	-0.13242474365234375	0		4.60274609375	0.021966577529907227	0		5.55613671875	0.0845062484741211	0		0.014310647964477539	6.03099609375	0		
-0.0047185149192810055	-0.0018085360527038575	0		0.46283721923828125	-2.455326904296875	0		-0.98492626953125	0.1002001724243164	0		-0.8509700927734375	-2.5358896484375	0		1.2979619140625	-0.8051961669921875	0		2.98038427734375	-0.12866273498535155	0		4.5906083984375	0.022170692443847655	0		5.54699853515625	0.08465427398681641	0		-0.0010524719953536987	6.02025048828125	0		
-0.0018374480009078979	0.0011007519960403442	0		0.474537841796875	-2.461591064453125	0		-0.9759686279296875	0.10699420928955078	0		-0.8131776123046875	-2.53765625	0		1.3008609619140625	-0.8012893676757813	0		2.98507080078125	-0.13579563903808595	0		4.59043212890625	0.0221304817199707	0		5.546822265625	0.08461235809326172	0		0.03118262481689453	6.0405947265625	0		
0.002034714937210083	0.004996699810028076	0		0.46857260131835937	-2.448505859375	0		-0.9720958862304687	0.11089558410644532	0		-0.809319580078125	-2.533755859375	0		1.3067669677734375	-0.7954398193359375	0		3.012151123046875	-0.12136415863037109	0		4.58818896484375	0.02011823844909668	0		5.56486669921875	0.09720436096191407	0		0.06412177276611328	6.04592822265625	0		
0.024728544235229494	5.317639708518982E-4	0		0.48234259033203125	-2.447801513671875	0		-0.9804728393554687	0.10304138946533203	0		-0.8234869384765625	-2.529497314453125	0		1.300420166015625	-0.80135400390625	0		2.988736083984375	-0.13096359252929687	0		4.6020009765625	0.021784704208374025	0		5.550529296875	0.09140629577636719	0		0.06199192810058594	6.0479462890625	0		
-0.005561131000518799	-0.0019002330303192138	0		0.4530801696777344	-2.447259033203125	0		-0.9866104736328125	0.10815487670898437	0		-0.8257943115234375	-2.531462158203125	0		1.297095947265625	-0.8053257446289063	0		2.98263427734375	-0.123900390625	0		4.59388232421875	0.027866619110107422	0		5.55029345703125	0.09132219696044921	0		-7.395470142364502E-4	6.0191396484375	0		
